<?xml version="1.0" encoding="utf-8"?>
<!-- Generator: Adobe Illustrator 26.0.1, SVG Export Plug-In . SVG Version: 6.00 Build 0)  -->
<svg version="1.1" id="Layer_1" xmlns="http://www.w3.org/2000/svg" xmlns:xlink="http://www.w3.org/1999/xlink" x="0px" y="0px"
	 viewBox="0 0 512 218.67" style="enable-background:new 0 0 512 218.67;" xml:space="preserve">
<style type="text/css">
	.st0{fill:#F16122;}
	.st1{fill:#0069B5;}
	.st2{fill:url(#SVGID_1_);}
	.st3{fill:url(#SVGID_00000053542555877121846790000003848857945329027985_);}
</style>
<g>
	<path class="st0" d="M222.41,82.97c7.12-10.42,18.86-16.31,34.35-16.33c15.65-0.02,27.88,5.75,35.4,16.33h26.76
		C308.66,59.54,285.65,44.03,257.53,44c-28.16-0.02-51.36,15.57-61.65,38.97H222.41z"/>
	<path class="st0" d="M290.98,140.74c-8.07,9.54-20.59,13.97-35.06,14.11c-14.03,0.13-25.39-4.83-32.62-14.11h-25.78
		c11.57,22.66,35.4,38.77,61.66,38.38c24.49-0.36,46.99-16.46,58.14-38.38H290.98z"/>
	<path class="st1" d="M378.21,82.97c-9.43-9.04-20.26-17.67-34.58-25.28c4.52,8.62,7.78,17.01,9.94,25.28H378.21z"/>
	<path class="st1" d="M352.07,140.74c-2.17,7.62-5.01,15.33-8.42,23.2c11.45-7.45,21.16-15.21,29.94-23.2H352.07z"/>
	<path class="st1" d="M158.81,82.97c1.56-6.99,3.6-15.25,6.18-25.25c-10.81,8.65-20.65,16.78-29.53,25.25H158.81z"/>
	<path class="st1" d="M138.37,140.74c7.82,7.02,16.46,13.67,26.84,19.48c-1.71-8-3.37-14.25-4.85-19.48H138.37z"/>
	<path d="M135.47,82.97c8.88-8.47,18.71-16.6,29.53-25.25c-2.58,10-4.62,18.27-6.18,25.25h16.54c11.74-33.99,44.3-58.61,82.85-58.99
		c36.31-0.36,69.01,25.09,81.04,58.99h14.32c-2.16-8.27-5.42-16.66-9.94-25.28c14.33,7.61,25.16,16.24,34.58,25.28h15.26
		c-19.88-18.55-41.17-35.26-65.19-48.66c-47.25-26.37-94.37-26.86-142.01-1.42c-21.25,11.34-39.97,26.1-58.57,41.33
		c-3.91,3.2-7.46,6.1-10.64,8.76H135.47z"/>
	<linearGradient id="SVGID_1_" gradientUnits="userSpaceOnUse" x1="115.6648" y1="48.5674" x2="394.752" y2="48.5674">
		<stop  offset="0" style="stop-color:#FFF7A9"/>
		<stop  offset="0.5" style="stop-color:#FFF100"/>
		<stop  offset="1" style="stop-color:#FFD700"/>
	</linearGradient>
	<path class="st2" d="M394.75,83.48h-16.74l-0.15-0.14c-10.57-10.13-21.11-17.93-33.04-24.43c4.06,7.96,7.16,16.01,9.23,23.93
		l0.17,0.63H338.9l-0.12-0.34c-12.38-34.88-45.52-58.99-80.56-58.66c-37.29,0.37-70.4,23.94-82.38,58.65l-0.12,0.34h-17.53
		l0.14-0.62c1.45-6.48,3.3-14.07,5.81-23.8c-9.5,7.62-19.43,15.8-28.31,24.28l-0.15,0.14h-20l1.07-0.89
		c3.01-2.52,6.35-5.25,10.02-8.25l0.61-0.5c17.89-14.65,37.16-29.91,58.65-41.38c23.78-12.7,47.78-19.01,71.4-18.78
		c23.59,0.24,47.51,7.04,71.1,20.2c21.89,12.22,43.25,28.16,65.29,48.73L394.75,83.48z M378.42,82.46h13.77
		c-21.65-20.09-42.64-35.71-64.15-47.71c-23.44-13.08-47.2-19.84-70.62-20.07c-23.43-0.25-47.28,6.04-70.91,18.66
		c-21.41,11.43-40.63,26.66-58.49,41.27l-0.62,0.5c-3.24,2.65-6.22,5.09-8.94,7.36h16.81c9.24-8.8,19.59-17.29,29.41-25.14
		l1.18-0.95l-0.38,1.47c-2.61,10.11-4.54,17.96-6.04,24.62H175c12.22-34.93,45.61-58.62,83.21-58.99c0.25,0,0.5,0,0.75,0
		c35.09,0,68.13,24.14,80.65,58.99h13.3c-2.18-8.13-5.45-16.38-9.73-24.54l-0.76-1.45l1.45,0.77
		C356.42,63.91,367.4,71.93,378.42,82.46z"/>
	<path d="M373.6,140.74c-8.78,8-18.5,15.76-29.94,23.2c3.41-7.87,6.26-15.58,8.42-23.2h-13.06c-11.97,33.16-43.57,56.53-81.34,56.7
		c-37.68,0.17-69.62-23.36-81.76-56.7h-15.55c1.48,5.22,3.13,11.47,4.85,19.48c-10.38-5.8-19.02-12.46-26.84-19.48h-16.79
		c1.08,0.99,2.19,2.01,3.34,3.06c36.89,33.77,77.32,61.16,129.99,62.5c7.4-0.39,14.94-0.57,22.43-1.29
		c3.33-0.32,6.53-1.79,9.82-2.65c40.8-10.65,73.19-33.91,102.71-61.63H373.6z"/>
	
		<linearGradient id="SVGID_00000155864932230687967870000014427610171554474430_" gradientUnits="userSpaceOnUse" x1="120.28" y1="173.5232" x2="391.1443" y2="173.5232">
		<stop  offset="0" style="stop-color:#FFF7A9"/>
		<stop  offset="0.5" style="stop-color:#FFF100"/>
		<stop  offset="1" style="stop-color:#FFD700"/>
	</linearGradient>
	<path style="fill:url(#SVGID_00000155864932230687967870000014427610171554474430_);" d="M254.93,206.81
		c-56.14-1.42-97.4-32.46-130.36-62.64l-4.3-3.94h18.28l0.14,0.13c8.67,7.78,16.89,13.8,25.77,18.86
		c-1.74-7.97-3.36-13.97-4.6-18.35l-0.18-0.64h16.57l0.12,0.33c12.29,33.76,44.77,56.37,80.9,56.37c0.13,0,0.26,0,0.39,0
		c36.82-0.17,68.56-22.29,80.86-56.37l0.12-0.33h14.09l-0.18,0.64c-1.97,6.93-4.52,14.06-7.78,21.72
		c9.97-6.59,19.3-13.88,28.48-22.23l0.15-0.13h17.74l-0.93,0.87c-35.58,33.41-67.32,52.46-102.93,61.75
		c-1.13,0.3-2.28,0.68-3.4,1.04c-2.11,0.69-4.28,1.41-6.5,1.62c-5.35,0.51-10.79,0.75-16.05,0.99
		C259.19,206.6,257.06,206.7,254.93,206.81z M122.88,141.25l2.38,2.18c32.82,30.05,73.9,60.95,129.66,62.37
		c2.09-0.11,4.23-0.21,6.37-0.3c5.25-0.23,10.67-0.47,16-0.98c2.11-0.2,4.23-0.9,6.28-1.58c1.13-0.37,2.29-0.76,3.46-1.06
		c35.12-9.16,66.48-27.88,101.55-60.63h-14.8c-9.6,8.73-19.37,16.29-29.86,23.12l-1.41,0.92l0.67-1.54
		c3.46-7.98,6.15-15.34,8.21-22.5h-12.04c-12.53,34.29-44.55,56.54-81.69,56.7c-0.13,0-0.26,0-0.39,0
		c-36.44,0-69.2-22.73-81.73-56.7h-14.53c1.27,4.54,2.92,10.71,4.67,18.86l0.23,1.09l-0.97-0.54c-9.28-5.19-17.8-11.36-26.79-19.41
		H122.88z"/>
	<path d="M64.86,87.77c4.59,0,7.6,1.57,9.17,5.7l14.94,39.32h-8.58L66.95,97.21c-0.39-1.05-1.11-1.51-2.16-1.51
		c-1.05,0-1.77,0.46-2.23,1.51l-14.02,35.58h-8.52l15.53-39.32C57.19,89.35,60.2,87.77,64.86,87.77 M64.86,84.74
		c-6.12,0-10.09,2.49-12.12,7.62L37.2,131.68l-1.64,4.15h4.46h8.52h2.06l0.76-1.92l13.38-33.96l12.81,33.92l0.74,1.96h2.1h8.58h4.4
		l-1.56-4.11L76.87,92.4C74.9,87.25,70.98,84.74,64.86,84.74L64.86,84.74z"/>
	<path d="M119.37,88.56c9.96,0,14.22,6.16,14.22,13.24c0,5.5-2.62,11.4-9.37,13.3l10.29,17.69h-8.58l-10.09-17.1H104.3
		c-0.72,0-1.11,0.33-1.11,1.11v15.99h-7.73v-17.5c0-4.98,2.1-7.01,6.95-7.01h17.23c4.39,0,6.16-3.01,6.16-6.16
		c0-3.15-1.9-5.83-6.16-5.83H95.39v-7.73H119.37 M119.37,85.53H95.39h-3.03v3.03v7.73v3.03h3.03h24.25c2.13,0,3.13,0.89,3.13,2.8
		c0,3.13-2.35,3.13-3.13,3.13H102.4c-6.53,0-9.98,3.47-9.98,10.04v17.5v3.03h3.03h7.73h3.03v-3.03v-14.07h7.88l9.21,15.61l0.88,1.49
		h1.73h8.58h5.27l-2.65-4.56l-8.54-14.69c5.85-3.24,8.04-9.47,8.04-14.78C136.63,91.91,129.85,85.53,119.37,85.53L119.37,85.53z"/>
	<path d="M176.77,88.56v7.73h-17.1c-8.52,0-12.25,4.26-12.25,14.42c0,10.09,3.67,14.35,12.25,14.35h17.1v7.73h-17.1
		c-12.91,0-19.99-7.27-19.99-22.08c0-14.87,7.14-22.15,19.99-22.15H176.77 M179.81,85.53h-3.03h-17.1
		c-14.84,0-23.02,8.94-23.02,25.18c0,16.2,8.18,25.12,23.02,25.12h17.1h3.03v-3.03v-7.73v-3.03h-3.03h-17.1
		c-7.75,0-9.22-3.98-9.22-11.32c0-9.52,3.38-11.38,9.22-11.38h17.1h3.03v-3.03v-7.73V85.53L179.81,85.53z"/>
	<path d="M209.86,88.56c9.96,0,14.22,6.16,14.22,13.24c0,5.5-2.62,11.4-9.37,13.3L225,132.79h-8.58l-10.09-17.1h-11.53
		c-0.72,0-1.11,0.33-1.11,1.11v15.99h-7.73v-17.5c0-4.98,2.1-7.01,6.95-7.01h17.23c4.39,0,6.16-3.01,6.16-6.16
		c0-3.15-1.9-5.83-6.16-5.83h-24.25v-7.73H209.86 M209.86,85.53h-23.98h-3.03v3.03v7.73v3.03h3.03h24.25c2.13,0,3.13,0.89,3.13,2.8
		c0,3.13-2.35,3.13-3.13,3.13h-17.23c-6.53,0-9.98,3.47-9.98,10.04v17.5v3.03h3.03h7.73h3.03v-3.03v-14.07h7.88l9.21,15.61
		l0.88,1.49h1.73H225h5.27l-2.65-4.56l-8.54-14.69c5.85-3.24,8.04-9.47,8.04-14.78C227.12,91.91,220.34,85.53,209.86,85.53
		L209.86,85.53z"/>
	<path d="M268.51,88.56l-17.82,25.16v19.07h-7.8v-19.07l-17.82-25.16h9.37l12.39,18.94l12.52-18.94H268.51 M274.37,85.53h-5.87
		h-9.17h-1.63l-0.9,1.36l-9.97,15.09l-9.86-15.08l-0.9-1.37h-1.64h-9.37h-5.87l3.39,4.79l17.27,24.38v18.1v3.03h3.03h7.8h3.03v-3.03
		v-18.1l17.27-24.38L274.37,85.53L274.37,85.53z"/>
	<path d="M297.27,88.56c9.96,0,14.22,6.16,14.22,13.24c0,6.68-3.87,13.89-14.22,13.89h-13.76c-0.72,0-1.11,0.33-1.11,1.11v15.99
		h-7.73v-17.5c0-4.98,2.1-7.01,6.95-7.01h15.92c4.39,0,6.16-3.01,6.16-6.09c0-3.21-1.9-5.9-6.09-5.9h-23v-7.73H297.27 M297.27,85.53
		H274.6h-3.03v3.03v7.73v3.03h3.03h23c1.31,0,3.06,0.3,3.06,2.86c0,3.06-2.35,3.06-3.13,3.06h-15.92c-6.53,0-9.98,3.47-9.98,10.04
		v17.5v3.03h3.03h7.73h3.03v-3.03v-14.07h11.84c7.09,0,11.15-2.99,13.3-5.5c2.55-2.98,3.96-7.04,3.96-11.43
		C314.53,91.91,307.75,85.53,297.27,85.53L297.27,85.53z"/>
	<path d="M349.37,88.56v7.73h-12.91v36.5h-7.8v-36.5h-12.91v-7.73H349.37 M352.4,85.53h-3.03h-33.62h-3.03v3.03v7.73v3.03h3.03h9.88
		v33.47v3.03h3.03h7.8h3.03v-3.03V99.33h9.88h3.03v-3.03v-7.73V85.53L352.4,85.53z"/>
	<path d="M364.37,88.56v44.23h-7.73V88.56H364.37 M367.4,85.53h-3.03h-7.73h-3.03v3.03v44.23v3.03h3.03h7.73h3.03v-3.03V88.56V85.53
		L367.4,85.53z"/>
	<path d="M395.76,87.77c4.59,0,7.6,1.57,9.17,5.7l14.94,39.32h-8.58l-13.43-35.58c-0.39-1.05-1.11-1.51-2.16-1.51
		c-1.05,0-1.77,0.46-2.23,1.51l-14.02,35.58h-8.52l15.53-39.32C388.09,89.35,391.1,87.77,395.76,87.77 M395.76,84.74
		c-6.12,0-10.09,2.49-12.12,7.62l-15.53,39.32l-1.64,4.15h4.46h8.52h2.06l0.76-1.92l13.38-33.96l12.81,33.92l0.74,1.96h2.1h8.58h4.4
		l-1.56-4.11L407.76,92.4C405.8,87.25,401.87,84.74,395.76,84.74L395.76,84.74z"/>
	<path d="M436.51,87.77c6.16,0,8.91,3.15,10.75,8.19l12.91,28.24c0.52,1.05,1.38,1.84,2.82,1.84c1.64,0,2.62-0.98,2.62-2.49V88.56
		h7.8v35.32c0,5.83-3.34,9.7-10.16,9.7c-6.16,0-8.98-3.15-10.81-8.19l-12.91-28.24c-0.59-1.31-1.38-1.9-2.75-1.9
		c-1.77,0-2.69,0.98-2.69,2.56v34.99h-7.73V97.41C426.36,91.64,429.63,87.77,436.51,87.77 M436.51,84.74
		c-8.14,0-13.19,4.85-13.19,12.67v35.39v3.03h3.03h7.73h3.03v-3.03V99.18l12.51,27.36c1.6,4.36,4.77,10.07,13.62,10.07
		c8.14,0,13.19-4.88,13.19-12.73V88.56v-3.03h-3.03h-7.8h-3.03v3.03v33.61l-12.51-27.36C448.46,90.45,445.3,84.74,436.51,84.74
		L436.51,84.74z"/>
</g>
<g>
</g>
<g>
</g>
<g>
</g>
<g>
</g>
<g>
</g>
<g>
</g>
</svg>
