<svg width="14" height="14" viewBox="0 0 14 14" fill="none" xmlns="http://www.w3.org/2000/svg">
<g clip-path="url(#clip0_322_407)">
<path d="M13.2834 5.53137L12.3007 5.36467C12.1984 5.03419 12.0668 4.71541 11.9059 4.41126L12.485 3.60115C12.7306 3.25605 12.6926 2.7852 12.3914 2.48689L11.5199 1.61537C11.3561 1.45159 11.1397 1.36093 10.9086 1.36093C10.7273 1.36093 10.5548 1.4165 10.4085 1.52178L9.59551 2.10085C9.27966 1.93415 8.94918 1.79669 8.60701 1.69433L8.44323 0.723376C8.37304 0.305162 8.01332 0.00100708 7.58926 0.00100708H6.35801C5.93395 0.00100708 5.57423 0.305162 5.50404 0.723376L5.33441 1.71773C5.00686 1.82009 4.68808 1.95462 4.38393 2.11839L3.57967 1.53933C3.43344 1.43405 3.25797 1.37848 3.07665 1.37848C2.84561 1.37848 2.62626 1.46914 2.46541 1.63292L1.59097 2.50444C1.29266 2.80274 1.25172 3.2736 1.49738 3.6187L2.08229 4.4405C1.92144 4.74758 1.79276 5.06636 1.69333 5.39684L0.722369 5.56061C0.304155 5.6308 0 5.99052 0 6.41459V7.64583C0 8.06989 0.304155 8.42961 0.722369 8.4998L1.71672 8.66943C1.81908 8.99698 1.95361 9.31576 2.11739 9.61991L1.54125 10.4212C1.29558 10.7663 1.3336 11.2372 1.63483 11.5355L2.50636 12.407C2.67013 12.5708 2.88655 12.6615 3.11759 12.6615C3.29891 12.6615 3.47146 12.6059 3.61769 12.5006L4.4395 11.9157C4.73488 12.0707 5.04488 12.1965 5.36366 12.2959L5.52743 13.2785C5.59762 13.6968 5.95735 14.0009 6.38141 14.0009H7.61558C8.03964 14.0009 8.39936 13.6968 8.46955 13.2785L8.63625 12.2959C8.96673 12.1935 9.28551 12.0619 9.58966 11.9011L10.3998 12.4801C10.546 12.5854 10.7215 12.641 10.9028 12.641C11.1338 12.641 11.3503 12.5503 11.514 12.3866L12.3855 11.515C12.6839 11.2167 12.7248 10.7459 12.4791 10.4008L11.9001 9.58774C12.0609 9.28066 12.1955 8.96189 12.2949 8.63433L13.2775 8.47056C13.6958 8.40037 13.9999 8.04065 13.9999 7.61658V6.38534C14.0058 5.96128 13.7016 5.60156 13.2834 5.53137ZM13.2161 7.61658C13.2161 7.6546 13.1898 7.68677 13.1518 7.69262L11.9235 7.89734C11.7685 7.92366 11.6456 8.03772 11.6076 8.18687C11.4965 8.61679 11.3269 9.02915 11.0987 9.41227C11.0198 9.5468 11.0256 9.7135 11.1163 9.84218L11.8387 10.8599C11.8591 10.8892 11.8562 10.933 11.8299 10.9594L10.9584 11.8309C10.9379 11.8514 10.9174 11.8543 10.9028 11.8543C10.8852 11.8543 10.8706 11.8484 10.8589 11.8397L9.8441 11.1173C9.71834 11.0266 9.54872 11.0208 9.41419 11.0997C9.03107 11.3279 8.6187 11.4975 8.18879 11.6086C8.03671 11.6466 7.92266 11.7724 7.89926 11.9245L7.69162 13.1528C7.68577 13.1908 7.6536 13.2171 7.61558 13.2171H6.38433C6.34631 13.2171 6.31414 13.1908 6.30829 13.1528L6.10357 11.9245C6.07725 11.7695 5.9632 11.6466 5.81404 11.6086C5.39583 11.5004 4.99224 11.3337 4.61497 11.1173C4.55355 11.0822 4.48336 11.0647 4.4161 11.0647C4.33714 11.0647 4.25525 11.088 4.18798 11.1378L3.16438 11.866C3.14976 11.8748 3.13514 11.8806 3.12051 11.8806C3.10882 11.8806 3.08542 11.8777 3.06495 11.8572L2.19343 10.9857C2.16711 10.9594 2.16418 10.9184 2.18465 10.8863L2.9041 9.87728C2.99476 9.74859 3.00061 9.57897 2.92164 9.44444C2.69353 9.06425 2.51805 8.65188 2.40692 8.22197C2.36598 8.07282 2.24314 7.95876 2.09107 7.93244L0.853974 7.72187C0.815955 7.71602 0.789634 7.68385 0.789634 7.64583V6.41459C0.789634 6.37657 0.815955 6.3444 0.853974 6.33855L2.07352 6.13383C2.22852 6.10751 2.35428 5.99345 2.3923 5.84137C2.50051 5.41146 2.66721 4.99617 2.8924 4.61305C2.97136 4.47852 2.96259 4.31182 2.87193 4.18606L2.14371 3.16247C2.12324 3.13322 2.12616 3.08935 2.15248 3.06303L3.024 2.19151C3.04448 2.17104 3.06495 2.16811 3.07957 2.16811C3.09712 2.16811 3.11174 2.17396 3.12344 2.18274L4.13242 2.90218C4.2611 2.99284 4.43072 2.99869 4.56525 2.91973C4.94545 2.69161 5.35781 2.51614 5.78772 2.405C5.93687 2.36406 6.05093 2.24123 6.07725 2.08915L6.28782 0.852057C6.29367 0.814037 6.32584 0.787716 6.36386 0.787716H7.59511C7.63312 0.787716 7.66529 0.814037 7.67114 0.852057L7.87586 2.0716C7.90218 2.2266 8.01624 2.35236 8.16832 2.39038C8.60993 2.50151 9.03107 2.67406 9.42296 2.9051C9.55749 2.98407 9.72419 2.97822 9.85287 2.88756L10.8618 2.16226C10.8765 2.15349 10.8911 2.14764 10.9057 2.14764C10.9174 2.14764 10.9408 2.15057 10.9613 2.17104L11.8328 3.04256C11.8591 3.06888 11.8621 3.10982 11.8416 3.14199L11.1192 4.15682C11.0285 4.28258 11.0227 4.4522 11.1017 4.58673C11.3298 4.96985 11.4994 5.38221 11.6105 5.81213C11.6486 5.9642 11.7743 6.07826 11.9264 6.10166L13.1547 6.3093C13.1927 6.31515 13.2191 6.34732 13.2191 6.38534V7.61658H13.2161V7.61658Z" fill="#F8F8F8"/>
<path d="M7.0013 3.97746C5.3343 3.97746 3.98022 5.33154 3.98022 6.99854C3.98022 8.66555 5.3343 10.0196 7.0013 10.0196C8.66831 10.0196 10.0224 8.66555 10.0224 6.99854C10.0224 5.33154 8.66831 3.97746 7.0013 3.97746ZM7.0013 9.22999C5.77006 9.22999 4.76986 8.22979 4.76986 6.99854C4.76986 5.7673 5.77006 4.7671 7.0013 4.7671C8.23255 4.7671 9.23275 5.7673 9.23275 6.99854C9.23275 8.22979 8.23255 9.22999 7.0013 9.22999Z" fill="#F8F8F8"/>
</g>
<defs>
<clipPath id="clip0_322_407">
<rect width="14" height="14" fill="white"/>
</clipPath>
</defs>
</svg>
